<svg width="153" height="54" viewBox="0 0 153 54" fill="none" xmlns="http://www.w3.org/2000/svg">
<g clip-path="url(#clip0_4261_23648)">
<mask id="mask0_4261_23648" style="mask-type:luminance" maskUnits="userSpaceOnUse" x="0" y="-18" width="176" height="72">
<path d="M0 54H175.16V-17.9719H0V54Z" fill="white"/>
</mask>
<g mask="url(#mask0_4261_23648)">
<path d="M17.2721 -0.000615013C20.9331 -0.000615013 22.0835 2.63517 23.0487 5.26683C23.4541 6.38435 32.9678 32.5357 33.2539 33.3206C33.33 33.5396 33.2786 33.899 32.9431 34.0292C32.6056 34.1572 27.6625 36.0866 27.3888 36.1898C27.1151 36.2952 26.8085 36.1423 26.7097 35.8676C26.6068 35.597 24.5551 29.8958 24.3246 29.2595H10.2237C10.0015 29.8958 7.92504 35.6094 7.83243 35.8676C7.73777 36.1299 7.44349 36.3076 7.15126 36.1898C6.85904 36.0742 1.8974 34.1448 1.60106 34.0292C1.31707 33.9176 1.18742 33.5933 1.2862 33.3206C1.63604 32.3415 11.0057 6.60951 11.4832 5.26683C12.4134 2.67442 13.6028 -0.000615013 17.2721 -0.000615013ZM0.533 46.7929C0.23666 46.7929 0 47.0408 0 47.3424V53.4547C0 53.7563 0.23666 54 0.533 54H33.9968C34.2993 54 34.536 53.7563 34.536 53.4547V47.3424C34.536 47.0408 34.2993 46.7929 33.9968 46.7929H0.533ZM17.2392 8.53885L12.473 22.9055H22.0835L17.3009 8.53885H17.2392ZM88.758 32.0957C88.0562 32.3332 87.5932 32.3911 87.0417 32.3911C85.9016 32.3911 85.2698 31.9387 85.2698 30.7654C85.2698 29.5425 86.0724 29.1335 87.6488 29.1335C88.0336 29.1335 88.4122 29.1893 88.5892 29.2513V30.1271C88.5892 31.0711 88.6407 31.6908 88.758 32.0957ZM92.81 33.4962C91.9683 32.2134 91.7481 31.4574 91.7481 29.84V26.5556C91.7481 24.7874 91.5423 24.1491 91.0772 23.5046C90.429 22.5916 89.3486 22.195 87.3627 22.195C85.9571 22.195 84.5927 22.3478 83.2716 22.6866L83.749 25.0208C84.6421 24.8948 85.5785 24.7874 86.2391 24.7874C88.3484 24.7874 88.5892 25.0931 88.5892 26.6816V27.2744C88.12 27.1484 87.5932 27.0575 86.982 27.0575C83.8066 27.0575 82.1294 28.6171 82.1294 31.1992C82.1294 33.6201 83.9219 34.9401 86.1053 34.9401C86.9203 34.9401 87.7722 34.7893 88.4472 34.5125C88.8547 34.3349 89.0317 34.2295 89.5585 33.8866C89.8754 34.3493 90.5113 34.8224 90.7706 34.9112L92.81 33.4962ZM124.22 32.0957C123.514 32.3332 123.059 32.3911 122.504 32.3911C121.36 32.3911 120.719 31.9387 120.719 30.7654C120.719 29.5425 121.532 29.1335 123.113 29.1335C123.498 29.1335 123.878 29.1893 124.051 29.2513V30.1271C124.051 31.0711 124.101 31.6908 124.22 32.0957ZM128.276 33.4962C127.428 32.2134 127.212 31.4574 127.212 29.84V26.5556C127.212 24.7874 127.002 24.1491 126.533 23.5046C125.893 22.5916 124.811 22.195 122.819 22.195C121.415 22.195 120.042 22.3478 118.721 22.6866L119.193 25.0208C120.088 24.8948 121.026 24.7874 121.705 24.7874C123.802 24.7874 124.051 25.0931 124.051 26.6816V27.2744C123.582 27.1484 123.059 27.0575 122.436 27.0575C119.256 27.0575 117.573 28.6171 117.573 31.1992C117.573 33.6201 119.369 34.9401 121.563 34.9401C122.388 34.9401 123.232 34.7893 123.901 34.5125C124.315 34.3349 124.485 34.2295 125.012 33.8866C125.333 34.3493 125.969 34.8224 126.231 34.9112L128.276 33.4962ZM153 34.6654C153 34.6654 151.259 30.941 150.833 30.0941C150.353 29.1397 149.909 28.4808 148.929 28.2432V28.1895C149.586 28.0635 150.109 27.6648 150.681 26.4461C151.222 25.2583 151.382 25.0022 151.701 24.7192C152.014 24.4383 152.442 24.5395 152.442 24.5395L152.603 22.3437C152.148 22.2817 151.644 22.2796 151.123 22.3086C150.259 22.3602 149.812 22.6102 149.386 23.0398C149.053 23.3683 148.827 23.8599 148.547 24.4238C148.25 25.0394 148.016 25.5351 147.707 26.161C147.4 26.8035 147.256 27.0926 146.431 27.0926H145.894V17.3654H142.715V34.6654H145.894V29.6913L146.328 29.683C147.24 29.683 147.4 29.9123 147.882 30.8769C148.446 32.0275 149.526 34.6654 149.526 34.6654H153ZM63.4312 34.6654H67.1005L61.5503 17.6546C60.9658 17.4584 60.2435 17.3365 59.4718 17.3365C58.6301 17.3365 58.3296 17.4481 57.6711 17.6546L51.7978 34.6654H55.3189C55.3189 34.6654 55.7943 33.174 56.354 31.3252H62.4372C62.9805 33.1719 63.4312 34.6654 63.4312 34.6654ZM57.2471 28.4725C57.2471 28.4725 58.2638 25.058 58.4222 24.5271C58.8256 23.1514 59.4388 20.9659 59.4388 20.9659H59.5397C59.5397 20.9659 60.1077 23.2299 60.4781 24.5023C60.618 25.0084 61.5893 28.4725 61.5893 28.4725H57.2471ZM98.2265 26.5267C97.1049 26.5267 96.1932 27.4459 96.1932 28.5717C96.1932 29.7057 97.1049 30.6187 98.2265 30.6187C99.3501 30.6187 100.258 29.7057 100.258 28.5717C100.258 27.4459 99.3501 26.5267 98.2265 26.5267ZM71.4571 17.3654H68.2693V34.6633H71.4571V17.3654ZM134.789 24.9444C136.551 24.9815 136.769 25.3472 136.769 26.8303V34.6654H139.928V26.5556C139.928 24.7874 139.722 24.1491 139.253 23.5046C138.605 22.5916 137.331 22.195 135.176 22.195C133.044 22.195 131.686 22.4222 129.939 22.9448V34.6654H133.131V25.0931C133.968 24.9712 134.117 24.9444 134.789 24.9444ZM79.3409 17.0576C77.3489 17.0576 76.2644 17.4543 75.6264 18.3652C75.1572 19.0118 74.9493 19.6645 74.9493 21.4369V22.9448H73.3668V25.531H74.9493V34.6654H78.1103L78.1021 25.531H81.2528V22.9448H78.1021L78.1103 21.5587C78.1103 19.9723 78.3511 19.6645 80.4625 19.6645C80.6909 19.6645 80.9482 19.6769 81.2219 19.6976L81.7199 17.2126C80.9399 17.1093 80.1415 17.0576 79.3409 17.0576ZM104.703 17.2188C105.787 17.1547 108.211 17.0638 109.732 17.0638C110.01 17.0638 110.298 17.0659 110.586 17.0804C113.576 17.0804 115.291 19.2658 115.291 21.8314C115.291 23.5769 114.494 24.7357 112.628 25.4257C114.824 25.9132 115.974 27.6339 115.974 29.7388C115.974 31.2839 115.54 32.5109 114.743 33.3475C113.71 34.3679 112.146 34.9401 110.064 34.9401C108.211 34.9401 105.886 34.8823 104.703 34.812V17.2188ZM109.732 20.0529C109.205 20.0529 108.553 20.0632 107.907 20.0859V24.24H109.734C110.459 24.24 111.041 24.0375 111.438 23.6471C111.817 23.2794 112.014 22.7589 112.014 22.1412C112.014 20.813 111.298 20.0611 109.967 20.0529H109.732ZM109.798 31.9573H109.936C111.597 31.9573 112.613 31.0711 112.626 29.2864C112.609 28.646 112.364 28.0552 111.926 27.6277C111.447 27.1443 110.767 26.8923 109.971 26.8923H107.907V31.9387C108.489 31.9511 109.131 31.9532 109.798 31.9573Z" fill="#EE2A23"/>
</g>
</g>
<defs>
<clipPath id="clip0_4261_23648">
<rect width="153" height="54" fill="white"/>
</clipPath>
</defs>
</svg>
