<svg width="26" height="26" viewBox="0 0 26 26" fill="none" xmlns="http://www.w3.org/2000/svg">
<circle opacity="0.1" cx="13" cy="13" r="13" fill="#2E945E"/>
<g clip-path="url(#clip0_4261_23515)">
<path d="M14.1571 14.1571C13.2143 15.13 13.1457 16.3429 13.0643 19C15.5414 19 17.2514 18.9914 18.1343 18.1343C18.9914 17.2514 19 15.46 19 13.0643C16.3429 13.15 15.13 13.2143 14.1571 14.1571ZM7 13.0643C7 15.46 7.00857 17.2514 7.86571 18.1343C8.74857 18.9914 10.4586 19 12.9357 19C12.85 16.3429 12.7857 15.13 11.8429 14.1571C10.87 13.2143 9.65714 13.1457 7 13.0643ZM12.9357 7C10.4629 7 8.74857 7.00857 7.86571 7.86571C7.00857 8.74857 7 10.54 7 12.9357C9.65714 12.85 10.87 12.7857 11.8429 11.8429C12.7857 10.87 12.8543 9.65714 12.9357 7ZM14.1571 11.8429C13.2143 10.87 13.1457 9.65714 13.0643 7C15.5414 7 17.2514 7.00857 18.1343 7.86571C18.9914 8.74857 19 10.54 19 12.9357C16.3429 12.85 15.13 12.7857 14.1571 11.8429Z" fill="#2E945E"/>
</g>
<defs>
<clipPath id="clip0_4261_23515">
<rect width="12" height="12" fill="white" transform="translate(7 7)"/>
</clipPath>
</defs>
</svg>
