<svg width="26" height="26" viewBox="0 0 26 26" fill="none" xmlns="http://www.w3.org/2000/svg">
<circle opacity="0.1" cx="13" cy="13" r="13" fill="#2E945E"/>
<path d="M20.3571 17.9993H18.6052C17.9427 17.9993 17.7431 17.4912 16.5554 16.3659C15.5175 15.4188 15.0791 15.301 14.8166 15.301C14.4535 15.301 14.3544 15.3955 14.3544 15.8687V17.3603C14.3544 17.7638 14.2162 18 13.1031 18C12.0231 17.9313 10.9759 17.6207 10.0476 17.0937C9.11931 16.5667 8.33652 15.8384 7.76372 14.9689C6.40413 13.3658 5.45786 11.4847 5 9.47499C5 9.2264 5.0998 9.00106 5.60034 9.00106H7.3507C7.80057 9.00106 7.96255 9.19078 8.13913 9.6291C8.98897 11.9973 10.4392 14.0573 11.028 14.0573C11.2537 14.0573 11.352 13.9628 11.352 13.43V10.9906C11.2775 9.87769 10.6533 9.78392 10.6533 9.38123C10.6612 9.27498 10.7126 9.17584 10.7964 9.10486C10.8803 9.03387 10.9901 8.99664 11.1024 9.00106H13.8539C14.2301 9.00106 14.3544 9.17842 14.3544 9.60438V12.8972C14.3544 13.2527 14.5156 13.3704 14.6293 13.3704C14.855 13.3704 15.0285 13.2527 15.4423 12.8616C16.3289 11.8371 17.0535 10.6961 17.5934 9.47427C17.6484 9.32741 17.7527 9.20168 17.8904 9.11634C18.0281 9.031 18.1915 8.99076 18.3557 9.00179H20.1068C20.6319 9.00179 20.7432 9.25038 20.6319 9.60511C19.9948 10.9559 19.2068 12.2382 18.2812 13.43C18.0924 13.7026 18.0171 13.8444 18.2812 14.1642C18.4547 14.4128 19.0689 14.8983 19.4811 15.3599C20.0815 15.9269 20.5797 16.5826 20.9566 17.3007C21.1071 17.763 20.8568 17.9993 20.3571 17.9993Z" fill="#2E945E"/>
</svg>
