<svg width="26" height="26" viewBox="0 0 26 26" fill="none" xmlns="http://www.w3.org/2000/svg">
<circle opacity="0.1" cx="13" cy="13" r="13" fill="#2E945E"/>
<path d="M13 7C16.3138 7 19 9.6862 19 13C19 16.3138 16.3138 19 13 19C11.9397 19.0018 10.898 18.7212 9.98201 18.187L7.00241 19L7.81361 16.0192C7.27898 15.103 6.99815 14.0608 7.00001 13C7.00001 9.6862 9.68621 7 13 7ZM10.9552 10.18L10.8352 10.1848C10.7576 10.1901 10.6818 10.2105 10.612 10.2448C10.547 10.2817 10.4875 10.3278 10.4356 10.3816C10.3636 10.4494 10.3228 10.5082 10.279 10.5652C10.0571 10.8537 9.93759 11.208 9.93941 11.572C9.94061 11.866 10.0174 12.1522 10.1374 12.4198C10.3828 12.961 10.7866 13.534 11.3194 14.065C11.4478 14.1928 11.5738 14.3212 11.7094 14.4406C12.3715 15.0234 13.1604 15.4438 14.0134 15.6682L14.3542 15.7204C14.4652 15.7264 14.5762 15.718 14.6878 15.7126C14.8625 15.7034 15.0331 15.6561 15.1876 15.574C15.2661 15.5334 15.3428 15.4894 15.4174 15.442C15.4174 15.442 15.4428 15.4248 15.4924 15.388C15.5734 15.328 15.6232 15.2854 15.6904 15.2152C15.7408 15.1632 15.7828 15.1028 15.8164 15.034C15.8632 14.9362 15.91 14.7496 15.9292 14.5942C15.9436 14.4754 15.9394 14.4106 15.9376 14.3704C15.9352 14.3062 15.8818 14.2396 15.8236 14.2114L15.4744 14.0548C15.4744 14.0548 14.9524 13.8274 14.6332 13.6822C14.5998 13.6676 14.564 13.6593 14.5276 13.6576C14.4865 13.6533 14.445 13.6579 14.4059 13.671C14.3668 13.6842 14.3309 13.7056 14.3008 13.7338C14.2978 13.7326 14.2576 13.7668 13.8238 14.2924C13.7989 14.3259 13.7646 14.3511 13.7253 14.365C13.686 14.3789 13.6434 14.3808 13.603 14.3704C13.5639 14.36 13.5256 14.3467 13.4884 14.3308C13.414 14.2996 13.3882 14.2876 13.3372 14.266C12.9927 14.1159 12.6739 13.9129 12.3922 13.6642C12.3166 13.5982 12.2464 13.5262 12.1744 13.4566C11.9384 13.2305 11.7327 12.9748 11.5624 12.6958L11.527 12.6388C11.502 12.6003 11.4814 12.559 11.4658 12.5158C11.443 12.4276 11.5024 12.3568 11.5024 12.3568C11.5024 12.3568 11.6482 12.1972 11.716 12.1108C11.782 12.0268 11.8378 11.9452 11.8738 11.887C11.9446 11.773 11.9668 11.656 11.9296 11.5654C11.7616 11.155 11.588 10.7468 11.4088 10.3408C11.3734 10.2604 11.2684 10.2028 11.173 10.1914C11.1406 10.1874 11.1082 10.1842 11.0758 10.1818C10.9952 10.1772 10.9145 10.178 10.834 10.1842L10.9552 10.18Z" fill="#2E945E"/>
</svg>
