<svg width="50" height="50" viewBox="0 0 50 50" fill="none" xmlns="http://www.w3.org/2000/svg">
<path d="M33.9982 3.40625H15.8164C8.91285 3.40625 3.31641 9.00269 3.31641 15.9062V34.0881C3.31641 40.9916 8.91285 46.5881 15.8164 46.5881H33.9982C40.9018 46.5881 46.4982 40.9916 46.4982 34.0881V15.9062C46.4982 9.00269 40.9018 3.40625 33.9982 3.40625Z" fill="white" stroke="#E5EAF5"/>
<path d="M40.8501 18.8828C40.7068 17.0088 39.2738 14.6062 37.841 13.453C36.2297 12.2728 34.5555 11.1821 32.826 10.1856C31.1095 9.16203 29.3397 8.23171 27.5244 7.39861C26.5546 7.00063 25.5149 6.80449 24.4676 6.822C23.4201 6.79986 22.3793 6.99618 21.4109 7.39861C19.5958 8.2323 17.826 9.1626 16.1093 10.1856C13.339 11.8674 11.0942 13.453 11.0942 13.453C10.2124 14.1955 9.4906 15.0974 8.96011 16.103C8.55056 16.8795 9.17878 17.7294 10.0566 17.7294C11.0317 17.7294 11.8972 17.1619 12.5268 16.4174C12.796 16.099 13.0935 15.8025 13.4172 15.5319C13.4172 15.5319 15.2706 14.2316 17.558 12.8526C18.9755 12.0137 20.4368 11.2509 21.9354 10.5672C22.7351 10.2373 23.5944 10.0763 24.4593 10.0944C25.3239 10.0801 26.1826 10.2409 26.9833 10.5672C28.4822 11.2504 29.9434 12.0132 31.3607 12.8526C32.7887 13.6696 34.1711 14.5641 35.5014 15.5319C36.6845 16.4775 37.8677 18.4476 37.986 19.9843C37.986 19.9843 38.262 22.2696 38.3014 24.9766C38.2991 26.6483 38.2069 28.3186 38.0254 29.9805C37.7502 31.7207 36.8536 33.3024 35.5014 34.4329C35.5014 34.4329 33.6479 35.7726 31.3607 37.1517C29.9432 37.9905 28.4819 38.7534 26.9833 39.437C26.1836 39.767 25.3243 39.9279 24.4593 39.9099C23.5955 39.9279 22.737 39.7711 21.9354 39.4488C20.4364 38.7657 18.9753 38.0028 17.558 37.1635C15.2706 35.8238 13.4172 34.4447 13.4172 34.4447C13.1239 34.2103 12.8305 33.9128 12.5528 33.5746C11.9388 32.8268 11.0762 32.2749 10.1086 32.2749C9.21152 32.2749 8.58714 33.1483 9.02144 33.9333C9.59347 34.967 10.3438 35.9136 11.0942 36.5176C11.0942 36.5176 13.339 38.1993 16.1093 39.833C17.8258 40.8566 19.5954 41.7869 21.4109 42.6201C22.3816 43.013 23.4214 43.2043 24.4676 43.1822C25.5152 43.2044 26.556 43.008 27.5244 42.6057C29.3395 41.7719 31.1092 40.8417 32.826 39.8186C35.5962 38.1369 37.841 36.5032 37.841 36.5032C39.4786 35.1243 40.5645 33.1954 40.8978 31.0734C41.1176 29.0467 41.2292 27.0096 41.2321 24.9709C41.1844 21.6697 40.8501 18.8828 40.8501 18.8828Z" fill="url(#paint0_linear_4570_41056)"/>
<path d="M8.17578 21.0007C8.17578 20.599 8.50139 20.2734 8.90307 20.2734H20.176C20.5777 20.2734 20.9033 20.599 20.9033 21.0007V23.1826C20.9033 23.5842 20.5777 23.9099 20.176 23.9099H8.17578V21.0007Z" fill="#0066B3"/>
<path d="M8.17578 26.0938H31.0852C31.4869 26.0938 31.8125 26.4193 31.8125 26.821V29.0028C31.8125 29.4045 31.4869 29.7301 31.0852 29.7301H8.90307C8.50139 29.7301 8.17578 29.4045 8.17578 29.0028V26.0938Z" fill="#EE2F53"/>
<defs>
<linearGradient id="paint0_linear_4570_41056" x1="24.7638" y1="6.82031" x2="24.7638" y2="43.1839" gradientUnits="userSpaceOnUse">
<stop stop-color="#0066B3"/>
<stop offset="0.354167" stop-color="#0066B3"/>
<stop offset="0.6875" stop-color="#EE2F53"/>
<stop offset="1" stop-color="#EE2F53"/>
</linearGradient>
</defs>
</svg>
