<svg width="60" height="60" viewBox="0 0 60 60" fill="none" xmlns="http://www.w3.org/2000/svg">
<rect width="60" height="60" rx="30" fill="#F7F7F7"/>
<path d="M29.7371 14.5427C29.908 14.4858 30.0925 14.4858 30.2634 14.5427L38.6169 17.3278L38.8455 17.4089C39.9778 17.8352 40.9611 18.5866 41.6707 19.571C42.4274 20.6209 42.8349 21.8823 42.8337 23.1765V29.9997C42.8337 34.827 39.8965 38.6144 36.8093 41.2575C33.731 43.893 30.5839 45.3195 30.3396 45.4274L30.3386 45.4284C30.2321 45.4757 30.1163 45.4997 29.9998 45.4997C29.8834 45.4997 29.7682 45.4757 29.6619 45.4284L29.6609 45.4274L29.4392 45.3259C28.6319 44.9448 25.8853 43.5641 23.1912 41.2575C20.104 38.6144 17.1668 34.827 17.1668 29.9997V23.1765C17.1656 21.8824 17.5722 20.6208 18.3289 19.571C19.0857 18.5211 20.1544 17.7359 21.3826 17.3278L29.7371 14.5427ZM21.9109 18.9079C21.0149 19.2064 20.2357 19.7796 19.6834 20.5456C19.1309 21.3118 18.8338 22.2329 18.8337 23.1774V29.9997C18.8337 33.8465 21.0538 36.9821 23.4832 39.2653C25.9188 41.5544 28.633 43.0531 29.7742 43.6315L30.0007 43.7458L30.2273 43.6306C31.3671 43.0501 34.0808 41.5472 36.5164 39.2565C38.9456 36.9719 41.1667 33.8374 41.1667 29.9997V23.1774C41.1667 22.2329 40.8696 21.3118 40.3171 20.5456C39.7647 19.7794 38.9848 19.2064 38.0886 18.9079L29.9998 16.2116L21.9109 18.9079Z" fill="black"/>
<path d="M35.3467 25.1758C35.4567 25.1759 35.5655 25.198 35.667 25.2402C35.7686 25.2824 35.8608 25.3441 35.9385 25.4219C36.0163 25.4998 36.0781 25.5926 36.1201 25.6943C36.1621 25.7959 36.1837 25.9047 36.1836 26.0146C36.1835 26.1247 36.1614 26.2343 36.1192 26.3359C36.0769 26.4375 36.0154 26.5297 35.9375 26.6074L30.2403 32.3047C30.0538 32.4924 29.8313 32.6419 29.5869 32.7432C29.3427 32.8442 29.0807 32.8954 28.8164 32.8945H28.7783C28.5086 32.8904 28.2425 32.8316 27.9961 32.7217C27.7497 32.6117 27.5281 32.4529 27.3447 32.2549L27.3379 32.248L24.2637 29.0488L24.2539 29.0391C24.175 28.9609 24.1128 28.8673 24.0703 28.7646C24.0279 28.662 24.0061 28.5515 24.0069 28.4404C24.0077 28.3294 24.0304 28.2192 24.0742 28.1172C24.1181 28.0151 24.1826 27.9227 24.2627 27.8457C24.3427 27.7688 24.4374 27.7088 24.541 27.6689C24.6448 27.629 24.7561 27.6097 24.8672 27.6133C24.9782 27.6169 25.0876 27.643 25.1885 27.6895C25.2894 27.7359 25.3801 27.8019 25.4551 27.8838L25.4629 27.8926L28.8096 31.3818L29.1699 31.0195L34.7529 25.4209C34.8309 25.3431 34.9237 25.2813 35.0254 25.2393C35.1272 25.1972 35.2366 25.1757 35.3467 25.1758Z" fill="black"/>
</svg>
