<svg width="60" height="60" viewBox="0 0 60 60" fill="none" xmlns="http://www.w3.org/2000/svg">
<rect width="60" height="60" rx="30" fill="#F7F7F7"/>
<path d="M32.0212 14.5196C33.1814 14.5163 34.3313 14.7434 35.4031 15.1875C36.4747 15.6316 37.4477 16.2838 38.2654 17.1065L42.0593 20.9014H42.0535L42.9128 21.7559C43.7351 22.5738 44.387 23.5467 44.8308 24.6182C45.2746 25.6897 45.5018 26.8384 45.4988 27.9981V39.3526C45.4988 42.7524 42.7316 45.5196 39.3318 45.5196H25.9988C24.5986 45.518 23.2404 45.0416 22.1462 44.168C21.982 44.0286 21.8778 43.8308 21.8562 43.6162C21.8344 43.399 21.8993 43.1811 22.0359 43.0108C22.1724 42.8408 22.3701 42.731 22.5867 42.7051C22.8034 42.6792 23.0222 42.7397 23.1951 42.8731C23.9982 43.5123 24.969 43.8525 25.9998 43.8526H39.3337C41.8151 43.8524 43.8337 41.8339 43.8337 39.3526V28C43.8337 27.8594 43.8189 27.7261 43.8044 27.6123C43.7887 27.4882 43.7752 27.403 43.7654 27.3037L43.7214 26.8526H36.6667C34.7376 26.8526 33.1667 25.2818 33.1667 23.3526V16.293L32.7126 16.251C32.6143 16.2419 32.529 16.229 32.406 16.2139C32.2928 16.2 32.1611 16.1866 32.0203 16.1866H25.9998C25.0053 16.1867 24.0384 16.5159 23.2507 17.1231C22.467 17.7274 21.905 18.5733 21.6501 19.5293C21.5891 19.7371 21.449 19.9129 21.2605 20.0196C21.0719 20.1262 20.849 20.1554 20.6394 20.1006C20.4298 20.0458 20.2497 19.911 20.1375 19.7256C20.0253 19.5403 19.9893 19.3186 20.0378 19.1075C20.3855 17.7949 21.1569 16.6334 22.2322 15.8037C23.3115 14.971 24.6366 14.5195 25.9998 14.5196H32.0212ZM19.9998 23.833C22.6649 23.833 24.8336 26.001 24.8337 28.6661C24.8337 30.1764 24.121 31.5157 23.0193 32.4073L22.8337 32.5567V39.1289C22.8337 39.4803 22.3869 39.6324 22.1726 39.3526L19.9998 36.5078L17.8279 39.3526C17.6136 39.6326 17.1667 39.4804 17.1667 39.1289V32.5567L16.9812 32.4073C15.8795 31.5157 15.1667 30.1764 15.1667 28.6661C15.1669 26.0011 17.3348 23.8332 19.9998 23.833ZM37.9998 35.833C38.2208 35.833 38.4333 35.9209 38.5896 36.0772C38.7457 36.2334 38.8337 36.4452 38.8337 36.6661C38.8337 36.8871 38.7459 37.0996 38.5896 37.2559C38.4333 37.4122 38.2208 37.5 37.9998 37.5H27.3337C27.1127 37.5 26.9002 37.4122 26.7439 37.2559C26.5876 37.0996 26.4998 36.8871 26.4998 36.6661C26.4998 36.4452 26.5878 36.2334 26.7439 36.0772C26.9002 35.9209 27.1127 35.833 27.3337 35.833H37.9998ZM37.9998 30.5C38.2208 30.5 38.4333 30.5879 38.5896 30.7442C38.7457 30.9004 38.8337 31.1122 38.8337 31.333C38.8337 31.5539 38.7457 31.7657 38.5896 31.9219C38.4333 32.0782 38.2208 32.1661 37.9998 32.1661H28.6667C28.4458 32.1661 28.2342 32.0782 28.0779 31.9219C27.9216 31.7656 27.8338 31.554 27.8337 31.333C27.8337 31.112 27.9216 30.9005 28.0779 30.7442C28.2342 30.5879 28.4457 30.5 28.6667 30.5H37.9998ZM19.9998 25.5C18.2532 25.5002 16.8339 26.9195 16.8337 28.6661C16.8337 30.4128 18.2531 31.8329 19.9998 31.833C21.7466 31.833 23.1667 30.4129 23.1667 28.6661C23.1666 26.9194 21.7465 25.5 19.9998 25.5ZM34.8337 23.3526C34.8337 24.365 35.6563 25.1866 36.6667 25.1866H37.8728L37.8708 25.1846H43.2781L42.8484 24.4356C42.5465 23.9097 42.1899 23.3884 41.7332 22.9317L37.0867 18.2852C36.6258 17.8243 36.1081 17.4668 35.5837 17.1641L34.8337 16.7315V23.3526Z" fill="black"/>
</svg>
