<svg width="60" height="60" viewBox="0 0 60 60" fill="none" xmlns="http://www.w3.org/2000/svg">
<rect width="60" height="60" rx="30" fill="#F7F7F7"/>
<path d="M42.1443 29.8008C42.1443 29.8008 42.9759 30.3729 42.9759 32.2956C42.9759 36.0379 40.3263 36.2683 40.3263 36.2683C39.7159 39.3211 38.3097 42.3116 35.4913 43.9383C34.1865 44.6909 33.7241 45.6015 30.5016 45.6015C27.2791 45.6015 26.8167 44.6909 25.5119 43.9383C22.6935 42.3116 21.2873 39.3211 20.676 36.2683C20.676 36.2683 18.0273 36.0379 18.0273 32.2956C18.0273 30.3729 18.859 29.8008 18.859 29.8008" stroke="black" stroke-width="1.26406" stroke-linecap="round" stroke-linejoin="round"/>
<path d="M42.3771 30.0419C42.8715 28.3989 43.0742 26.682 42.9759 24.969C42.9759 17.1884 38.298 14 30.5016 14C26.3435 14 24.316 15.4038 23.017 17.3265C20.938 18.1581 18.0273 20.791 18.0273 25.6426C17.9212 27.1347 18.125 28.6325 18.6261 30.0419" stroke="black" stroke-width="1.26406" stroke-linecap="round" stroke-linejoin="round"/>
<path d="M31.333 31.0482C31.333 31.0482 32.1646 29.8008 36.3227 29.8008C38.8176 29.8008 39.6492 30.6324 39.6492 30.6324C39.6492 30.6324 39.2334 34.7905 35.9069 34.7905C32.9962 34.7905 32.1646 34.3747 31.333 31.0482Z" stroke="black" stroke-linecap="round" stroke-linejoin="round"/>
<path d="M29.6702 31.0482C29.6702 31.0482 28.8386 29.8008 24.6805 29.8008C22.1856 29.8008 21.354 30.6324 21.354 30.6324C21.354 30.6324 21.7698 34.7905 25.0963 34.7905C28.0069 34.7905 28.8386 34.3747 29.6702 31.0482Z" stroke="black" stroke-linecap="round" stroke-linejoin="round"/>
<path d="M42.1442 29.8029C39.7549 28.7692 41.7974 22.3184 37.1545 22.3184C35.5461 22.3184 34.6596 23.15 31.991 23.15C30.4242 23.15 28.0108 22.3184 25.5118 22.3184C20.6951 22.3184 22.8091 29.8029 18.8589 29.8029" stroke="black" stroke-width="1.26406" stroke-linecap="round" stroke-linejoin="round"/>
<path d="M39.6494 30.6324L42.1443 29.8008" stroke="black" stroke-linecap="round" stroke-linejoin="round"/>
<path d="M21.3537 30.6324L18.8589 29.8008" stroke="black" stroke-linecap="round" stroke-linejoin="round"/>
<path d="M29.6699 31.0486C29.7668 30.9195 29.8923 30.8147 30.0367 30.7426C30.181 30.6704 30.3402 30.6328 30.5015 30.6328C30.6629 30.6328 30.8221 30.6704 30.9664 30.7426C31.1108 30.8147 31.2363 30.9195 31.3332 31.0486" stroke="black" stroke-width="1.26406" stroke-linecap="round" stroke-linejoin="round"/>
</svg>
