<svg width="60" height="60" viewBox="0 0 60 60" fill="none" xmlns="http://www.w3.org/2000/svg">
<rect width="60" height="60" rx="30" fill="#F7F7F7"/>
<path d="M30 17.0391C37.995 17.0391 42.567 22.5058 44.6016 25.8193L44.6025 25.8203C45.193 26.7753 45.5059 27.8762 45.5059 28.999C45.5059 30.1218 45.193 31.2227 44.6025 32.1777L44.6016 32.1787C42.567 35.4922 37.995 40.959 30 40.959C22.005 40.959 17.433 35.4922 15.3984 32.1787L15.3975 32.1777L15.1895 31.8125C14.734 30.9467 14.4941 29.9815 14.4941 28.999C14.4941 27.8762 14.807 26.7753 15.3975 25.8203L15.3984 25.8193C17.433 22.5059 22.005 17.0391 30 17.0391ZM30 18.7061C22.7786 18.7061 18.6275 23.7523 16.8203 26.6904C16.3917 27.384 16.1641 28.1837 16.1641 28.999C16.1641 29.8138 16.3913 30.6124 16.8193 31.3057C18.6261 34.2436 22.7776 39.292 30 39.292C37.2226 39.292 41.373 34.2436 43.1797 31.3057C43.6079 30.6123 43.8359 29.814 43.8359 28.999C43.8359 28.1837 43.6083 27.384 43.1797 26.6904C41.3721 23.7463 37.221 18.7061 30 18.7061Z" fill="black"/>
<path d="M30.3053 22.8398C31.829 22.9172 33.2742 23.5568 34.3581 24.6406C35.4419 25.7245 36.0815 27.1698 36.1589 28.6934L36.1667 28.999C36.1666 30.2186 35.8052 31.4108 35.1276 32.4248C34.45 33.4389 33.4868 34.2295 32.36 34.6963C31.2332 35.163 29.9927 35.2848 28.7966 35.0469C27.6005 34.8089 26.5016 34.2217 25.6393 33.3594C24.777 32.497 24.1898 31.3982 23.9518 30.2021C23.7139 29.0059 23.8357 27.7655 24.3024 26.6387C24.7692 25.5119 25.5598 24.5487 26.5739 23.8711C27.5879 23.1936 28.7802 22.8321 29.9997 22.832L30.3053 22.8398ZM31.7223 24.8408C30.9001 24.5002 29.9947 24.4113 29.1218 24.585C28.249 24.7586 27.4473 25.1872 26.818 25.8164C26.1887 26.4457 25.7602 27.2482 25.5866 28.1211C25.413 28.9939 25.5019 29.8986 25.8425 30.7207C26.183 31.5429 26.7598 32.2458 27.4997 32.7402C28.2396 33.2346 29.1098 33.4989 29.9997 33.499C31.1932 33.499 32.3384 33.0246 33.1823 32.1807C34.0261 31.3368 34.4996 30.1923 34.4997 28.999C34.4997 28.1091 34.2362 27.239 33.7419 26.499C33.2474 25.759 32.5446 25.1814 31.7223 24.8408Z" fill="black"/>
</svg>
