<svg width="60" height="60" viewBox="0 0 60 60" fill="none" xmlns="http://www.w3.org/2000/svg">
<rect width="60" height="60" rx="30" fill="#F7F7F7"/>
<path d="M30.9102 15.9502C31.1002 15.838 31.3273 15.8063 31.541 15.8613C32.6861 16.1561 33.722 16.774 34.5254 17.6416C35.3287 18.5092 35.8654 19.5896 36.0713 20.7539L36.1445 21.167H39.333C42.7329 21.167 45.5 23.9341 45.5 27.334V34.001C45.4984 35.0838 45.1339 36.135 44.4648 36.9863C43.7955 37.8379 42.8597 38.4399 41.8076 38.6973L41.3525 38.8086L41.4346 39.2705C41.5403 39.8698 41.5137 40.4853 41.3564 41.0732C41.1992 41.6611 40.9151 42.2073 40.5244 42.6738C40.1336 43.1405 39.6451 43.5165 39.0938 43.7744C38.5426 44.0323 37.9415 44.165 37.333 44.166C36.7362 44.1649 36.1461 44.0366 35.6035 43.7881C35.0607 43.5394 34.5773 43.177 34.1865 42.7256C33.7959 42.2743 33.5062 41.7445 33.3379 41.1719C33.1695 40.5989 33.1264 39.9955 33.2109 39.4043L33.293 38.834H26.707L26.7891 39.4043C26.8736 39.9955 26.8305 40.5989 26.6621 41.1719C26.4938 41.7445 26.2041 42.2743 25.8135 42.7256C25.4227 43.177 24.9393 43.5394 24.3965 43.7881C23.8536 44.0367 23.2632 44.165 22.666 44.166C22.0578 44.1648 21.4571 44.0321 20.9062 43.7744C20.3549 43.5165 19.8664 43.1405 19.4756 42.6738C19.0849 42.2073 18.8008 41.6611 18.6436 41.0732C18.4863 40.4853 18.4597 39.8698 18.5654 39.2705L18.6475 38.8086L18.1924 38.6973C17.1403 38.4399 16.2045 37.8379 15.5352 36.9863C14.9078 36.1881 14.5486 35.2141 14.5049 34.2031L14.5 34V28.667C14.5002 27.4726 15.4726 26.501 16.667 26.501H20C20.221 26.501 20.4326 26.5888 20.5889 26.7451C20.7451 26.9014 20.833 27.113 20.833 27.334C20.833 27.555 20.7451 27.7666 20.5889 27.9229C20.4326 28.0791 20.221 28.167 20 28.167H16.167V34.001C16.1672 35.7475 17.5865 37.1668 19.333 37.167H34.5V21.833C34.5008 20.8352 34.1693 19.8653 33.5586 19.0762C32.9479 18.2872 32.092 17.7232 31.126 17.4736L31.0469 17.4492C30.8671 17.3834 30.7144 17.2571 30.6162 17.0908C30.5039 16.9007 30.4723 16.6738 30.5273 16.46C30.5824 16.2461 30.72 16.0625 30.9102 15.9502ZM20.4414 38.834L20.3203 39.1582C20.2298 39.3997 20.167 39.6823 20.167 40.001C20.1672 41.3796 21.2883 42.501 22.667 42.501C23.8743 42.5008 24.8839 41.6406 25.1162 40.501H25.168V40.001C25.168 39.6823 25.1052 39.3997 25.0146 39.1582L24.8936 38.834H20.4414ZM35.1084 38.834L34.9863 39.1582C34.8958 39.3997 34.833 39.6823 34.833 40.001C34.8332 41.3795 35.9545 42.5008 37.333 42.501C38.7113 42.501 39.8348 41.3801 39.835 40.001C39.835 39.6823 39.7722 39.3997 39.6816 39.1582L39.5596 38.834H35.1084ZM36.167 30.834V37.167H40.667C42.4135 37.1668 43.8328 35.7475 43.833 34.001V30.834H36.167ZM36.167 22.834V29.167H43.833V27.334C43.833 24.8525 41.8145 22.834 39.333 22.834H36.167ZM23.5391 21.167C23.7599 21.1671 23.9718 21.255 24.1279 21.4111C24.2842 21.5674 24.3721 21.78 24.3721 22.001C24.372 22.2219 24.2841 22.4336 24.1279 22.5898C23.9717 22.746 23.7599 22.8339 23.5391 22.834H15.333C15.1121 22.8339 14.9003 22.746 14.7441 22.5898C14.5879 22.4336 14.5001 22.2219 14.5 22.001C14.5 21.78 14.5879 21.5674 14.7441 21.4111C14.9003 21.255 15.1122 21.1671 15.333 21.167H23.5391ZM26.2051 15.834C26.4261 15.834 26.6386 15.9218 26.7949 16.0781C26.951 16.2343 27.039 16.4462 27.0391 16.667C27.0391 16.888 26.9512 17.1006 26.7949 17.2568C26.6386 17.4131 26.4261 17.501 26.2051 17.501H15.333C15.1122 17.5009 14.9003 17.4129 14.7441 17.2568C14.5879 17.1006 14.5 16.888 14.5 16.667C14.5001 16.4461 14.5879 16.2343 14.7441 16.0781C14.9003 15.9219 15.1121 15.8341 15.333 15.834H26.2051Z" fill="black"/>
</svg>
