<svg width="190" height="43" viewBox="0 0 190 43" fill="none" xmlns="http://www.w3.org/2000/svg">
<mask id="mask0_4261_23490" style="mask-type:luminance" maskUnits="userSpaceOnUse" x="0" y="0" width="190" height="42">
<path d="M189.949 0H0V41.925H189.949V0Z" fill="white"/>
</mask>
<g mask="url(#mask0_4261_23490)">
<path d="M60.361 28.0624H62.3015V25.6248H60.9842C59.2565 25.6248 57.777 25.3924 56.5407 24.9276C55.3196 24.4628 54.3823 23.7811 53.7338 22.8876C53.1005 21.989 52.7812 20.9148 52.7812 19.6495C52.7812 18.3842 53.1005 17.3204 53.7338 16.4372C54.3874 15.5386 55.3196 14.8621 56.5407 14.3973C57.777 13.917 59.2615 13.6743 60.9842 13.6743H62.3015V11.3864H60.361V10.8906H67.0439V11.3864H65.1034V13.6743H66.3954C68.1231 13.6743 69.6026 13.917 70.8388 14.3973C72.0751 14.8621 73.0125 15.5438 73.6458 16.4372C74.2994 17.3152 74.6237 18.3894 74.6237 19.6495C74.6237 20.9096 74.2994 21.989 73.6458 22.8876C73.0125 23.7862 72.0751 24.4628 70.8388 24.9276C69.6178 25.3924 68.1383 25.6248 66.3954 25.6248H65.1034V28.0624H67.0439V28.5582H60.361V28.0624ZM62.2964 14.17H60.8575C59.1957 14.17 57.9087 14.6503 56.9967 15.6161C56.0847 16.5767 55.6287 17.9246 55.6287 19.6495C55.6287 21.3744 56.0847 22.743 56.9967 23.7088C57.9087 24.6694 59.1957 25.1548 60.8575 25.1548H62.2964V14.17ZM66.522 25.1497C68.1839 25.1497 69.4709 24.6694 70.3829 23.7036C71.3101 22.743 71.7762 21.3899 71.7762 19.6444C71.7762 17.8988 71.3202 16.5767 70.4082 15.6109C69.4962 14.6503 68.2042 14.1649 66.5271 14.1649H65.1085V25.1445H66.5271L66.522 25.1497Z" fill="#272C34"/>
<path d="M78.1118 16.613H76.2422V16.1172H82.4337V16.613H80.5033V25.3254L87.3889 16.1172H90.7835V16.613H88.9798V28.0625H90.7835V28.5583H84.5566V28.0625H86.5833V18.0539L78.4259 29.1058H78.1067V16.6078L78.1118 16.613Z" fill="#272C34"/>
<path d="M92.4336 28.0625H94.2373V16.613H92.4336V16.1172H96.6085V22.0925H102.714V16.6181H100.662V16.1224H106.914V16.6181H105.11V28.0677H106.914V28.5635H100.723V28.0677H102.714V22.5934H96.6085V28.0677H98.6251V28.5635H92.4336V28.0625Z" fill="#272C34"/>
<path d="M112.384 28.8386C111.133 28.8386 110.16 28.5494 109.476 27.9658C108.807 27.3874 108.473 26.6128 108.473 25.6522C108.473 24.4592 108.959 23.5864 109.937 23.039C110.915 22.4915 112.217 22.1507 113.843 22.0164C114.74 21.9338 115.465 21.815 116.017 21.6704C116.584 21.5051 117.01 21.2727 117.289 20.9732C117.583 20.6736 117.729 20.2863 117.729 19.8009C117.729 18.6543 117.476 17.7867 116.975 17.1876C116.468 16.5886 115.779 16.289 114.897 16.289C114.345 16.289 113.707 16.4904 112.992 16.8881C112.293 17.2858 111.69 17.7764 111.183 18.3548C110.697 18.9332 110.449 19.4858 110.449 19.9971V20.8441H109.983V15.5195H110.469V16.8881C110.601 16.8365 110.682 16.8055 110.712 16.79C111.624 16.475 112.359 16.2426 112.911 16.0928C113.479 15.943 114.092 15.8707 114.745 15.8707C116.356 15.8707 117.618 16.3252 118.53 17.2393C119.457 18.1534 119.923 19.4032 119.923 20.999V28.0691H121.813V28.5649H117.724V25.4301C117.349 26.5095 116.691 27.3461 115.743 27.9452C114.801 28.5443 113.676 28.8438 112.374 28.8438L112.384 28.8386ZM113.382 28.0898C114.163 28.0898 114.887 27.8832 115.556 27.4649C116.225 27.0311 116.752 26.4372 117.142 25.6728C117.532 24.9085 117.729 24.046 117.729 23.0854V21.1694C117.517 21.4535 117.177 21.6859 116.706 21.8666C116.25 22.0474 115.662 22.192 114.948 22.2901C113.529 22.4399 112.491 22.7704 111.822 23.2869C111.168 23.8033 110.844 24.5418 110.844 25.5024C110.844 26.2977 111.082 26.9278 111.553 27.3926C112.024 27.8574 112.637 28.0898 113.387 28.0898H113.382Z" fill="#272C34"/>
<path d="M123.152 28.0625H124.956V16.613H123.152V16.1172H127.327V22.0925H133.433V16.6181H131.37V16.1224H138.15V16.6181H135.829V28.0677H138.15V28.5635H131.37V28.0677H133.433V22.5934H127.327V28.0677H129.339V28.5635H123.152V28.0625Z" fill="#272C34"/>
<path d="M150.36 27.6408C149.904 27.9042 149.351 28.147 148.698 28.3639C148.272 28.5136 147.836 28.6221 147.38 28.6892C146.94 28.7719 146.494 28.8132 146.038 28.8132C144.802 28.8132 143.692 28.5395 142.714 27.992C141.751 27.4291 140.996 26.6544 140.444 25.6784C139.892 24.6971 139.613 23.5868 139.613 22.3421C139.613 21.0975 139.892 19.9871 140.444 19.0059C140.996 18.0247 141.756 17.2655 142.714 16.718C143.692 16.1551 144.796 15.8711 146.038 15.8711C146.772 15.8711 147.543 15.995 148.358 16.2429C148.926 16.4082 149.458 16.6251 149.944 16.8885V14.7969H150.431V20.8444H149.964V19.9975C149.964 19.481 149.747 18.9336 149.306 18.3552C148.88 17.7768 148.353 17.2861 147.72 16.8885C147.102 16.4908 146.514 16.2894 145.962 16.2894C145.197 16.2894 144.523 16.5321 143.935 17.0124C143.347 17.4772 142.891 18.1641 142.567 19.0782C142.258 19.9923 142.101 21.0768 142.101 22.337C142.101 23.5971 142.258 24.6868 142.567 25.5957C142.891 26.4943 143.347 27.1812 143.935 27.6615C144.523 28.1263 145.197 28.3587 145.962 28.3587C146.595 28.3587 147.259 28.1573 147.938 27.7596C148.622 27.3465 149.189 26.83 149.645 26.2155C150.116 25.6009 150.36 25.0121 150.38 24.4492V23.53H150.846V29.4071H150.36V27.6408Z" fill="#272C34"/>
<path fill-rule="evenodd" clip-rule="evenodd" d="M0 6.94618C0 3.109 3.10587 0 6.94133 0H43.1883C47.0237 0 50.1296 3.1658 50.1296 7.07529V34.8497C50.1296 38.7592 47.0237 41.925 43.1883 41.925H6.94133C3.10587 41.925 0 38.816 0 34.9788C0 34.9581 0 34.9375 0 34.9116C0.0354667 31.1054 3.1312 28.0326 6.94133 28.0326C10.7515 28.0326 13.8827 24.8668 13.8827 20.9573C13.8827 17.0478 10.7768 13.882 6.94133 13.882C3.10587 13.882 0.0354667 10.8143 0 7.00815C0 6.98749 0 6.96684 0 6.94101V6.94618ZM20.0944 28.0636H18.1792V28.5594H24.8419V28.0636H22.9013V21.0916H25.2928C27.4107 21.0916 29.0725 20.6526 30.2733 19.7747C31.4944 18.876 32.1024 17.6572 32.1024 16.1131C32.1024 14.5689 31.4995 13.3346 30.2936 12.4515C29.0877 11.5735 27.4208 11.1345 25.2877 11.1345H18.1691V11.6303H20.0843V28.0584L20.0944 28.0636ZM28.2011 19.4286C27.4664 20.2085 26.4328 20.601 25.1003 20.601H22.9013V11.6407H25.1003C26.4379 11.6407 27.4715 12.0332 28.2011 12.813C28.9357 13.5928 29.3005 14.698 29.3005 16.1234C29.3005 17.5488 28.9357 18.654 28.2011 19.4338V19.4286ZM43.3555 28.3631C44.0091 28.1462 44.5613 27.9087 45.0173 27.6401V28.6214H45.5037V24.2058H45.0376V24.7015C45.0376 25.218 44.7944 25.7654 44.3029 26.3438C43.8115 26.9222 43.2136 27.4129 42.4941 27.8105C41.7797 28.1927 41.1008 28.3838 40.4675 28.3838C39.7176 28.3838 39.0488 28.1514 38.4661 27.6866C37.8784 27.2218 37.4072 26.5556 37.0475 25.6931C36.708 24.8152 36.5256 23.7771 36.5104 22.579H46.6944V22.3052C46.6792 21.0451 46.4005 19.9244 45.8635 18.9432C45.3416 17.9619 44.612 17.2079 43.6645 16.676C42.7221 16.1286 41.6227 15.8548 40.3661 15.8548C39.1096 15.8548 38.0811 16.1286 37.1184 16.676C36.1557 17.2234 35.4008 17.9929 34.8485 18.9897C34.2963 19.9709 34.0176 21.0813 34.0176 22.3259C34.0176 23.5705 34.2963 24.717 34.8485 25.7138C35.416 26.695 36.2064 27.4542 37.2197 28.0016C38.228 28.5336 39.368 28.7969 40.6397 28.7969C41.0957 28.7969 41.5517 28.7556 42.0077 28.673C42.4637 28.6059 42.9096 28.4974 43.3504 28.3476L43.3555 28.3631ZM43.6949 18.9277C44.0192 19.7902 44.1915 20.8437 44.2067 22.0883H36.5155C36.5307 20.9263 36.7029 19.9038 37.0272 19.0258C37.3515 18.1479 37.8024 17.4765 38.3699 17.0117C38.9373 16.5314 39.6061 16.2887 40.3712 16.2887C41.1363 16.2887 41.8203 16.5107 42.3725 16.96C42.94 17.3938 43.3808 18.0446 43.6899 18.9277H43.6949Z" fill="#8D9DB4"/>
<path d="M7.06772 18.082C8.55732 18.082 9.76825 19.3163 9.76825 20.8347C9.76825 22.353 8.55732 23.5873 7.06772 23.5873C5.57812 23.5873 4.36719 22.353 4.36719 20.8347C4.36719 19.3163 5.57812 18.082 7.06772 18.082Z" fill="#48B7A2"/>
<path d="M154.402 26.8839C154.402 25.8407 155.208 25.0195 156.231 25.0195C157.255 25.0195 158.06 25.8407 158.06 26.8839C158.06 27.9271 157.28 28.7741 156.231 28.7741C155.183 28.7741 154.402 27.9529 154.402 26.8839Z" fill="#272C34"/>
<path d="M159.961 33.0249H162.276V16.6226H159.961V16.1268H164.643V19.1583C165.397 17.0977 166.983 15.8789 169.152 15.8789C172.248 15.8789 174.639 18.4869 174.639 22.3396C174.639 26.1923 172.248 28.8003 169.152 28.8003C166.983 28.8003 165.397 27.5557 164.643 25.5209V33.0249H168.057V33.5207H159.961V33.0249ZM172.106 22.3345C172.106 18.4818 170.571 16.5451 168.473 16.5451C166.203 16.5451 164.546 19.0809 164.546 22.3345C164.546 25.5881 166.203 28.1238 168.473 28.1238C170.571 28.1238 172.106 26.1613 172.106 22.3345Z" fill="#272C34"/>
<path d="M176.953 27.8057H177.393V28.7508C177.393 30.7133 179.562 33.1767 181.269 33.1767C182.146 33.1767 182.83 32.4072 182.83 31.2401V30.9922C182.83 30.295 182.44 29.4274 181.097 26.5921L176.172 16.6247H174.465V16.1289H181.66V16.6247H178.903L183.098 25.5747C183.245 25.9 183.438 26.4216 183.585 27.0414C183.706 26.4681 183.782 26.1944 183.95 25.7244L187.582 16.6299H184.244V16.1341H189.949V16.6299H188.094L184.365 26.024C184.026 26.9949 183.853 27.7128 183.853 28.756V29.1278C183.853 32.1335 182.587 33.7758 180.661 33.7758C179.395 33.7758 178.052 33.2284 177.419 32.8307V34.3697H176.958V27.8057H176.953Z" fill="#272C34"/>
</g>
</svg>
