<svg width="16" height="16" viewBox="0 0 16 16" fill="none" xmlns="http://www.w3.org/2000/svg">
<g clip-path="url(#clip0_1009_445)">
<path fill-rule="evenodd" clip-rule="evenodd" d="M1.88547 0.511025C2.06045 0.336313 2.27055 0.200783 2.50187 0.113415C2.73318 0.0260465 2.98043 -0.0111645 3.22721 0.00424771C3.47399 0.0196599 3.71469 0.0873434 3.93333 0.202813C4.15198 0.318282 4.34359 0.478901 4.49547 0.674025L6.29047 2.98002C6.61947 3.40302 6.73547 3.95402 6.60547 4.47402L6.05847 6.66402C6.03039 6.77746 6.03201 6.89623 6.06319 7.00886C6.09437 7.12148 6.15405 7.22418 6.23647 7.30702L8.69347 9.76402C8.77642 9.84661 8.87928 9.90639 8.9921 9.93758C9.10492 9.96876 9.22388 9.97029 9.33747 9.94203L11.5265 9.39503C11.7831 9.33124 12.0509 9.32644 12.3096 9.381C12.5684 9.43556 12.8114 9.54805 13.0205 9.71002L15.3265 11.504C16.1555 12.149 16.2315 13.374 15.4895 14.115L14.4555 15.149C13.7155 15.889 12.6095 16.214 11.5785 15.851C8.93914 14.9236 6.54301 13.4128 4.56847 11.431C2.58684 9.45677 1.07602 7.061 0.148471 4.42202C-0.213529 3.39202 0.111471 2.28502 0.851471 1.54502L1.88547 0.511025Z" fill="#2E945E"/>
</g>
<defs>
<clipPath id="clip0_1009_445">
<rect width="16" height="16" fill="white"/>
</clipPath>
</defs>
</svg>
