<svg width="156" height="26" viewBox="0 0 156 26" fill="none" xmlns="http://www.w3.org/2000/svg">
<path d="M69.7525 7.54271L73.0032 5.11328H62.1172V19.6677H73.0032V17.2362H65.2266V13.5214H71.8732V11.092H65.2266V7.54271H69.7525Z" fill="#21A038"/>
<path d="M53.8924 10.7813H50.1211V7.54271H56.1544L59.4071 5.11328H47.0117V19.6677H53.4909C57.1209 19.6677 59.2174 17.9989 59.2174 15.0933C59.2174 12.3067 57.3328 10.7813 53.8924 10.7813ZM53.3738 17.2362H50.1211V13.2107H53.3738C55.3533 13.2107 56.2714 13.8786 56.2714 15.2366C56.2714 16.5946 55.2827 17.2362 53.3738 17.2362Z" fill="#21A038"/>
<path d="M81.8165 5.11328H75.9023V19.6677H79.0118V15.5453H81.8407C85.61 15.5453 87.9668 13.5457 87.9668 10.3293C87.9668 7.11292 85.61 5.11328 81.8165 5.11328ZM81.7459 13.1159H78.9896V7.54271H81.7459C83.7496 7.54271 84.8331 8.54354 84.8331 10.3293C84.8331 12.115 83.7496 13.1159 81.7459 13.1159Z" fill="#21A038"/>
<path d="M41.6829 16.5222C40.8597 16.9762 39.9396 17.2143 38.9973 17.2143C36.1925 17.2143 34.1666 15.1884 34.1666 12.4019C34.1666 9.61527 36.1925 7.5894 38.9973 7.5894C40.0102 7.56721 41.0009 7.90014 41.8242 8.4954L44.0639 6.82869L43.9227 6.68543C42.6273 5.51713 40.8819 4.92188 38.9024 4.92188C36.7595 4.92188 34.8023 5.66039 33.3898 6.99415C31.9753 8.37634 31.1743 10.3054 31.2207 12.307C31.1964 14.3309 31.9753 16.2841 33.3898 17.7127C34.8729 19.1191 36.8523 19.906 38.8802 19.8576C41.118 19.8576 43.0732 19.0707 44.3928 17.6421L42.3912 16.1408L41.6829 16.5222Z" fill="#21A038"/>
<path d="M125.363 5.13749V19.6899H128.473V13.7353H135.095V19.6899H138.207V5.13749H135.095V11.1162H128.473V5.13749H125.363ZM120.014 19.6899H123.289L117.209 5.13749H114.051L107.855 19.6899H110.988L112.237 16.76H118.836L120.014 19.6899ZM113.18 14.3306L115.583 8.49511L117.845 14.3306H113.18ZM145.182 13.808H147.113L151.873 19.6677H155.878L149.516 12.1393L155.077 5.11328H151.52L146.901 11.3543H145.182V5.11328H142.071V19.6677H145.182V13.808ZM97.5802 10.8055V7.56692H105.71V5.13749H94.4688V19.6899H100.95C104.578 19.6899 106.676 18.0232 106.676 15.1175C106.676 12.3309 104.792 10.8055 101.349 10.8055H97.5802ZM97.5802 17.2604V13.2349H100.833C102.81 13.2349 103.73 13.9028 103.73 15.2608C103.73 16.6188 102.764 17.2846 100.833 17.2846H97.5802V17.2604Z" fill="#21A038"/>
<path d="M21.4904 5.01758C22.0554 5.75609 22.5276 6.56523 22.9271 7.42279L12.0411 15.5444L7.46875 12.6388V9.16214L12.0169 12.0436L21.4904 5.01758Z" fill="#21A038"/>
<path d="M2.82662 12.4007C2.82662 12.2332 2.82662 12.092 2.85084 11.9245L0.0945261 11.7812C0.0945261 11.9729 0.0703125 12.1868 0.0703125 12.3765C0.0703125 15.7119 1.41417 18.7366 3.58128 20.9279L5.53653 18.9505C3.86377 17.2838 2.82662 14.9734 2.82662 12.4007Z" fill="url(#paint0_linear_4261_23690)"/>
<path d="M12.0184 3.1108C12.1839 3.1108 12.3252 3.1108 12.4906 3.13501L12.6319 0.348432C12.4422 0.348432 12.2303 0.324219 12.0427 0.324219C8.74356 0.324219 5.75116 1.6822 3.58203 3.87353L5.53728 5.85097C7.18784 4.16005 9.4962 3.1108 12.0184 3.1108Z" fill="url(#paint1_linear_4261_23690)"/>
<path d="M12.0158 21.6913C11.8503 21.6913 11.709 21.6913 11.5436 21.6671L11.4023 24.4537C11.592 24.4537 11.8039 24.4779 11.9915 24.4779C15.2906 24.4779 18.2851 23.1199 20.4522 20.9286L18.4969 18.9512C16.8464 20.6663 14.5602 21.6913 12.0158 21.6913Z" fill="url(#paint2_linear_4261_23690)"/>
<path d="M17.2033 4.73187L19.5358 2.99252C17.4857 1.32582 14.8707 0.300781 12.0195 0.300781V3.08736C13.9526 3.11157 15.7424 3.70682 17.2033 4.73187Z" fill="url(#paint3_linear_4261_23690)"/>
<path d="M23.9885 12.4015C23.9885 11.663 23.9179 10.9487 23.7989 10.2344L21.2302 12.1634C21.2302 12.234 21.2302 12.3309 21.2302 12.4015C21.2302 15.1417 20.0518 17.5953 18.1914 19.2862L20.0518 21.3585C22.457 19.1672 23.9885 15.9508 23.9885 12.4015Z" fill="#21A038"/>
<path d="M12.0164 21.6922C9.3065 21.6922 6.87909 20.5017 5.20633 18.6191L3.15625 20.5017C5.34758 22.9554 8.50543 24.4788 12.0164 24.4788V21.6922Z" fill="url(#paint4_linear_4261_23690)"/>
<path d="M5.86745 5.51759L4.00502 3.44531C1.57761 5.66085 0.0703125 8.85301 0.0703125 12.4023H2.82662C2.82662 9.68636 4.00502 7.21052 5.86745 5.51759Z" fill="url(#paint5_linear_4261_23690)"/>
<defs>
<linearGradient id="paint0_linear_4261_23690" x1="3.28735" y1="20.5891" x2="0.456507" y2="12.3693" gradientUnits="userSpaceOnUse">
<stop offset="0.1444" stop-color="#F2E913"/>
<stop offset="0.3037" stop-color="#E7E518"/>
<stop offset="0.5823" stop-color="#CADB26"/>
<stop offset="0.891" stop-color="#A3CD39"/>
</linearGradient>
<linearGradient id="paint1_linear_4261_23690" x1="4.36823" y1="3.55896" x2="11.5208" y2="0.820885" gradientUnits="userSpaceOnUse">
<stop offset="0.0592" stop-color="#0FA8E0"/>
<stop offset="0.5385" stop-color="#0099F9"/>
<stop offset="0.9234" stop-color="#0291EB"/>
</linearGradient>
<linearGradient id="paint2_linear_4261_23690" x1="11.2413" y1="22.1079" x2="19.764" y2="20.173" gradientUnits="userSpaceOnUse">
<stop offset="0.1226" stop-color="#A3CD39"/>
<stop offset="0.2846" stop-color="#86C339"/>
<stop offset="0.8693" stop-color="#21A038"/>
</linearGradient>
<linearGradient id="paint3_linear_4261_23690" x1="11.4532" y1="2.07632" x2="18.5409" y2="4.27314" gradientUnits="userSpaceOnUse">
<stop offset="0.0566" stop-color="#0291EB"/>
<stop offset="0.79" stop-color="#0C8ACB"/>
</linearGradient>
<linearGradient id="paint4_linear_4261_23690" x1="3.85714" y1="20.9426" x2="11.4719" y2="23.8007" gradientUnits="userSpaceOnUse">
<stop offset="0.1324" stop-color="#F2E913"/>
<stop offset="0.2977" stop-color="#EBE716"/>
<stop offset="0.5306" stop-color="#D9E01F"/>
<stop offset="0.8023" stop-color="#BBD62D"/>
<stop offset="0.9829" stop-color="#A3CD39"/>
</linearGradient>
<linearGradient id="paint5_linear_4261_23690" x1="2.18293" y1="12.739" x2="5.24293" y2="4.74279" gradientUnits="userSpaceOnUse">
<stop offset="0.0698" stop-color="#A3CD39"/>
<stop offset="0.2599" stop-color="#81C55F"/>
<stop offset="0.9216" stop-color="#0FA8E0"/>
</linearGradient>
</defs>
</svg>
