<svg width="163" height="21" viewBox="0 0 163 21" fill="none" xmlns="http://www.w3.org/2000/svg">
<g clip-path="url(#clip0_4261_23666)">
<path d="M32.0969 4.04102C34.3588 4.04102 36.1912 5.03025 36.9643 5.76511L35.6759 7.31962C35.046 6.75434 33.643 5.99122 32.0969 5.99122C29.2624 5.99122 27.4872 7.91316 27.4872 10.5417C27.4872 13.1702 29.1765 15.0922 32.1255 15.0922C33.8434 15.0922 35.3323 14.1877 35.9622 13.5659L37.1933 15.177C36.4203 15.9683 34.4733 17.0424 32.0969 17.0424C27.9167 17.0424 25.3398 14.2725 25.3398 10.5134C25.3398 6.81087 28.0026 4.04102 32.0969 4.04102Z" fill="#213A8B"/>
<path d="M44.9798 4.04297C48.845 4.04297 51.6509 6.81282 51.6509 10.5719C51.6509 14.331 48.845 17.1008 44.9798 17.1008C41.1145 17.1008 38.3086 14.331 38.3086 10.5719C38.3086 6.81282 41.1145 4.04297 44.9798 4.04297ZM44.9798 15.1224C47.5853 15.1224 49.5322 13.1722 49.5322 10.5719C49.5322 7.94337 47.6139 6.02143 44.9798 6.02143C42.3743 6.02143 40.4273 7.97164 40.4273 10.5719C40.4273 13.1722 42.3743 15.1224 44.9798 15.1224Z" fill="#213A8B"/>
<path d="M64.936 13.1708C64.936 15.0079 63.7334 16.7886 60.6698 16.7886H53.9414V4.32422H60.269C62.8459 4.32422 64.3061 5.87873 64.3061 7.65935C64.3061 8.64858 63.848 9.55302 62.7313 10.2879C63.848 10.6553 64.936 11.475 64.936 13.1708ZM56.0029 6.27442V9.60955L60.0113 9.58128C61.4429 9.58128 62.1873 8.7899 62.1873 7.85719C62.1873 7.00928 61.5574 6.27442 60.2976 6.27442H56.0029ZM60.7844 14.8383C62.2446 14.8383 62.8172 14.047 62.8172 13.1708C62.8172 12.2381 62.1587 11.4467 60.8416 11.4467H56.0315V14.8383H60.7844Z" fill="#213A8B"/>
<path d="M73.2417 10.3727L78.8248 16.7886H76.0762L71.4092 11.3336H69.0042V16.7886H66.9141V4.32422H69.0042V9.46823H71.4092L75.9617 4.32422H78.7389L73.2417 10.3727Z" fill="#213A8B"/>
<path d="M85.2376 4.04102C89.1029 4.04102 91.9088 6.81087 91.9088 10.57C91.9088 14.329 89.1029 17.0989 85.2376 17.0989C81.3723 17.0989 78.5664 14.329 78.5664 10.57C78.5664 6.81087 81.3723 4.04102 85.2376 4.04102ZM85.2376 15.1204C87.8431 15.1204 89.79 13.1702 89.79 10.57C89.79 7.94142 87.8717 6.01948 85.2376 6.01948C82.6321 6.01948 80.6851 7.96968 80.6851 10.57C80.6851 13.1702 82.6321 15.1204 85.2376 15.1204Z" fill="#213A8B"/>
<path d="M105.911 4.32422H107.915V16.7886H105.825V7.51803L101.673 13.0012H100.414L96.262 7.51803V16.7886H94.1719V4.32422H96.1761L101.043 10.7118L105.911 4.32422Z" fill="#213A8B"/>
<path d="M117.42 9.4117C120.197 9.4117 121.715 11.0227 121.715 13.086C121.715 15.1493 120.197 16.7886 117.563 16.7886H110.691V4.32422H120.541V6.27442H112.782V9.4117H117.42ZM117.477 14.8383C118.909 14.8383 119.567 14.047 119.567 13.1143C119.567 12.1816 118.909 11.3902 117.477 11.3902H112.782V14.8383H117.477Z" fill="#213A8B"/>
<path d="M133.252 16.7886L131.878 13.6795H125.894L124.52 16.7886H122.258L127.755 4.32422H130.046L135.543 16.7886H133.252ZM126.724 11.8141H131.076L128.9 6.8397L126.724 11.8141Z" fill="#213A8B"/>
<path d="M146.45 4.32422H148.54V16.7886H146.45V11.4467H139.149V16.7886H137.059V4.32422H139.149V9.49649H146.45V4.32422Z" fill="#213A8B"/>
<path d="M157.644 10.3727L163.256 16.7886H160.479L155.812 11.3336H153.407V16.7886H151.316V4.32422H153.407V9.46823H155.812L160.364 4.32422H163.141L157.644 10.3727Z" fill="#213A8B"/>
<path d="M0.34375 10.5701C0.34375 16.2794 5.03934 20.9146 10.8516 20.9146C10.9947 20.9146 11.1379 20.9146 11.281 20.9146V16.986H10.8516C7.24398 16.986 4.35218 14.1031 4.35218 10.5701C4.35218 7.0371 7.27261 4.1542 10.8516 4.1542H11.281V0.197266C11.1379 0.197266 10.9947 0.197266 10.8516 0.197266C5.03934 0.197266 0.34375 4.83253 0.34375 10.5701Z" fill="#DA5155"/>
<path d="M12.9406 0.396484V5.79487H10.8505C8.15909 5.79487 6.01172 7.91465 6.01172 10.5715C6.01172 13.2 8.18772 15.348 10.8505 15.348H12.9406V20.7464C17.7221 19.7854 21.3297 15.6024 21.3297 10.5997C21.3297 5.54049 17.7221 1.35745 12.9406 0.396484Z" fill="#213A8B"/>
</g>
<defs>
<clipPath id="clip0_4261_23666">
<rect width="163" height="21" fill="white"/>
</clipPath>
</defs>
</svg>
