<svg width="125" height="45" viewBox="0 0 125 45" fill="none" xmlns="http://www.w3.org/2000/svg">
<g clip-path="url(#clip0_4261_23680)">
<path fill-rule="evenodd" clip-rule="evenodd" d="M8.49274 0L6.36823 5.8406H35.8092L37.9337 0H8.49274ZM5.30531 8.75958L3.1808 14.5989H32.6218L34.7463 8.75958H5.30531ZM2.12451 17.5192L0 23.3584H29.441L31.5641 17.5192H2.12451Z" fill="#009FDF"/>
<mask id="mask0_4261_23680" style="mask-type:luminance" maskUnits="userSpaceOnUse" x="44" y="8" width="81" height="37">
<path d="M44.1719 44.6485H124.763V8.87109H44.1719V44.6485Z" fill="white"/>
</mask>
<g mask="url(#mask0_4261_23680)">
<path fill-rule="evenodd" clip-rule="evenodd" d="M62.5907 25.5834V25.7066C63.9361 26.2023 65.2213 27.0689 65.8947 27.6255C67.9752 29.3589 68.8936 31.6489 68.8936 34.62C68.8936 39.5114 66.3231 43.0391 62.1007 44.1536C60.8155 44.5247 59.47 44.6493 56.9598 44.6493H44.1719V8.87109H55.4925C57.8179 8.87109 59.4084 8.99433 60.8154 9.36538C64.9161 10.4799 67.6084 13.3278 67.6084 17.8454C67.6084 20.26 66.7516 22.3035 65.3445 23.6645C64.7327 24.2833 63.8759 25.0268 62.5907 25.5834ZM51.27 29.3589V38.7679H56.1659C57.6332 38.7679 58.98 38.6447 59.96 37.7157C60.9386 36.7867 61.367 35.6113 61.367 34.0634C61.367 32.888 61.0604 31.7735 60.4486 30.9691C59.4084 29.669 58.1232 29.3589 55.9209 29.3589H51.27ZM51.2084 23.1688H55.1859C56.4096 23.1688 57.0214 23.1688 57.6332 22.9833C59.2866 22.4877 60.3268 21.0034 60.3268 18.9599C60.3268 16.5467 59.225 15.4932 57.6332 14.9989C56.9598 14.8134 56.2877 14.7511 54.9409 14.7511H51.2084V23.1688ZM79.5408 44.6493V14.8743H69.322V8.87109H97.7159L95.6971 14.8743H86.639V44.6493H79.5408ZM99.9182 44.6493V8.87109H122.928L120.909 14.8743H106.956V22.7978H112.647C117.237 22.7978 119.624 23.9123 121.276 25.3356C122.561 26.4501 124.763 28.9256 124.763 33.817C124.763 38.6447 122.499 41.3057 120.602 42.6681C118.4 44.2146 116.074 44.6493 111.362 44.6493H99.9182ZM106.956 38.6447H112.28C114.299 38.6447 115.523 38.1491 116.38 37.0346C116.808 36.478 117.42 35.4867 117.42 33.6301C117.42 31.7735 116.808 30.4734 115.584 29.5444C114.851 28.9879 113.871 28.6791 112.219 28.6791H106.956V38.6447Z" fill="#0A2973"/>
</g>
</g>
<defs>
<clipPath id="clip0_4261_23680">
<rect width="125" height="45" fill="white"/>
</clipPath>
</defs>
</svg>
